<svg width="493" height="101" viewBox="0 0 493 101" fill="none" xmlns="http://www.w3.org/2000/svg">
<path d="M66.962 6.39005L31.7087 69.1197L43.7062 69.1538L67.5293 27.7288L108.724 101V85.3414C108.724 84.1362 108.424 82.95 107.85 81.8903L66.962 6.39005Z" fill="white"/>
<path d="M73.6901 83.8218L68.4109 75.0554L39.2526 75.0553L21.88 75.0554L63.5072 0.00533029L54.3447 5.51613e-07C53.0538 -0.000710064 51.8602 0.685212 51.2108 1.80088L3.51538 83.755L73.6901 83.8218Z" fill="white"/>
<path d="M0 97.3766C0 99.3778 1.62216 101 3.62343 101H101.538L67.4492 40.2091L61.4105 50.6683L75.0204 74.2252L84.5608 89.9164H0V97.3766Z" fill="white"/>
<path d="M167.331 76V45.4545H175.623V69.3182H187.973V76H167.331ZM209.402 45.4545H217.694V65.0227C217.694 67.3494 217.137 69.3629 216.024 71.0632C214.92 72.7536 213.379 74.0611 211.4 74.9858C209.422 75.9006 207.125 76.358 204.51 76.358C201.875 76.358 199.568 75.9006 197.589 74.9858C195.61 74.0611 194.069 72.7536 192.966 71.0632C191.872 69.3629 191.325 67.3494 191.325 65.0227V45.4545H199.618V64.3068C199.618 65.2514 199.826 66.0966 200.244 66.8423C200.662 67.5781 201.238 68.1548 201.974 68.5724C202.72 68.9901 203.565 69.1989 204.51 69.1989C205.464 69.1989 206.309 68.9901 207.045 68.5724C207.781 68.1548 208.358 67.5781 208.775 66.8423C209.193 66.0966 209.402 65.2514 209.402 64.3068V45.4545ZM221.635 45.4545H231.957L239.056 62.7557H239.414L246.513 45.4545H256.834V76H248.721V58.3409H248.482L241.681 75.7614H236.789L229.988 58.2216H229.749V76H221.635V45.4545ZM260.764 45.4545H271.085L278.185 62.7557H278.543L285.642 45.4545H295.963V76H287.85V58.3409H287.611L280.81 75.7614H275.918L269.117 58.2216H268.878V76H260.764V45.4545ZM307.828 76H298.879L308.961 45.4545H320.297L330.379 76H321.43L314.748 53.8665H314.51L307.828 76ZM306.158 63.9489H322.981V70.1534H306.158V63.9489ZM361.525 55.5369C361.396 55.0099 361.192 54.5476 360.913 54.1499C360.635 53.7422 360.287 53.3991 359.869 53.1207C359.462 52.8324 358.984 52.6186 358.438 52.4794C357.901 52.3303 357.309 52.2557 356.663 52.2557C355.271 52.2557 354.082 52.5888 353.098 53.255C352.124 53.9212 351.378 54.8807 350.861 56.1335C350.354 57.3864 350.1 58.8977 350.1 60.6676C350.1 62.4574 350.344 63.9886 350.831 65.2614C351.318 66.5341 352.044 67.5085 353.009 68.1847C353.973 68.8608 355.171 69.1989 356.603 69.1989C357.866 69.1989 358.915 69.0149 359.75 68.647C360.595 68.2791 361.227 67.7571 361.644 67.081C362.062 66.4048 362.271 65.6094 362.271 64.6946L363.702 64.8438H356.722V58.9375H370.265V63.1733C370.265 65.9574 369.673 68.3388 368.49 70.3175C367.317 72.2862 365.696 73.7976 363.628 74.8516C361.57 75.8956 359.208 76.4176 356.543 76.4176C353.57 76.4176 350.96 75.7862 348.713 74.5234C346.466 73.2607 344.711 71.4609 343.448 69.1243C342.195 66.7876 341.569 64.0085 341.569 60.7869C341.569 58.2614 341.952 56.0241 342.717 54.0753C343.493 52.1264 344.567 50.4808 345.939 49.1385C347.311 47.7862 348.897 46.767 350.697 46.081C352.496 45.3849 354.425 45.0369 356.484 45.0369C358.293 45.0369 359.974 45.2955 361.525 45.8125C363.086 46.3196 364.463 47.0455 365.656 47.9901C366.859 48.9247 367.829 50.0334 368.565 51.3161C369.3 52.5987 369.748 54.0057 369.907 55.5369H361.525ZM374.132 76V45.4545H387.316C389.583 45.4545 391.567 45.8672 393.267 46.6925C394.968 47.5178 396.29 48.706 397.235 50.2571C398.179 51.8082 398.651 53.6676 398.651 55.8352C398.651 58.0227 398.164 59.8672 397.19 61.3686C396.225 62.87 394.868 64.0036 393.118 64.7692C391.378 65.5348 389.345 65.9176 387.018 65.9176H379.143V59.4744H385.348C386.322 59.4744 387.152 59.3551 387.838 59.1165C388.534 58.8679 389.066 58.4751 389.434 57.9382C389.812 57.4013 390.001 56.7003 390.001 55.8352C390.001 54.9602 389.812 54.2493 389.434 53.7024C389.066 53.1456 388.534 52.7379 387.838 52.4794C387.152 52.2109 386.322 52.0767 385.348 52.0767H382.424V76H374.132ZM392.029 61.9801L399.666 76H390.657L383.2 61.9801H392.029ZM431.777 60.7273C431.777 64.1278 431.116 66.9964 429.794 69.3331C428.471 71.6598 426.686 73.4247 424.439 74.6278C422.192 75.821 419.686 76.4176 416.922 76.4176C414.138 76.4176 411.622 75.8161 409.375 74.6129C407.138 73.3999 405.358 71.63 404.036 69.3033C402.723 66.9666 402.067 64.108 402.067 60.7273C402.067 57.3267 402.723 54.4631 404.036 52.1364C405.358 49.7997 407.138 48.0348 409.375 46.8416C411.622 45.6385 414.138 45.0369 416.922 45.0369C419.686 45.0369 422.192 45.6385 424.439 46.8416C426.686 48.0348 428.471 49.7997 429.794 52.1364C431.116 54.4631 431.777 57.3267 431.777 60.7273ZM423.246 60.7273C423.246 58.8977 423.002 57.3565 422.515 56.1037C422.038 54.8409 421.327 53.8864 420.382 53.2401C419.448 52.5838 418.294 52.2557 416.922 52.2557C415.55 52.2557 414.392 52.5838 413.447 53.2401C412.512 53.8864 411.801 54.8409 411.314 56.1037C410.837 57.3565 410.598 58.8977 410.598 60.7273C410.598 62.5568 410.837 64.103 411.314 65.3658C411.801 66.6186 412.512 67.5732 413.447 68.2294C414.392 68.8757 415.55 69.1989 416.922 69.1989C418.294 69.1989 419.448 68.8757 420.382 68.2294C421.327 67.5732 422.038 66.6186 422.515 65.3658C423.002 64.103 423.246 62.5568 423.246 60.7273ZM453.691 45.4545H461.983V65.0227C461.983 67.3494 461.427 69.3629 460.313 71.0632C459.209 72.7536 457.668 74.0611 455.689 74.9858C453.711 75.9006 451.414 76.358 448.799 76.358C446.164 76.358 443.857 75.9006 441.878 74.9858C439.9 74.0611 438.358 72.7536 437.255 71.0632C436.161 69.3629 435.614 67.3494 435.614 65.0227V45.4545H443.907V64.3068C443.907 65.2514 444.115 66.0966 444.533 66.8423C444.951 67.5781 445.527 68.1548 446.263 68.5724C447.009 68.9901 447.854 69.1989 448.799 69.1989C449.753 69.1989 450.598 68.9901 451.334 68.5724C452.07 68.1548 452.647 67.5781 453.064 66.8423C453.482 66.0966 453.691 65.2514 453.691 64.3068V45.4545ZM465.925 76V45.4545H479.109C481.376 45.4545 483.36 45.902 485.06 46.7969C486.76 47.6918 488.083 48.9496 489.028 50.5703C489.972 52.1911 490.444 54.0852 490.444 56.2528C490.444 58.4403 489.957 60.3345 488.983 61.9354C488.018 63.5362 486.661 64.7692 484.911 65.6342C483.171 66.4993 481.138 66.9318 478.811 66.9318H470.936V60.4886H477.14C478.115 60.4886 478.945 60.3196 479.631 59.9815C480.327 59.6335 480.859 59.1413 481.227 58.505C481.605 57.8686 481.794 57.1179 481.794 56.2528C481.794 55.3778 481.605 54.6321 481.227 54.0156C480.859 53.3892 480.327 52.9119 479.631 52.5838C478.945 52.2457 478.115 52.0767 477.14 52.0767H474.217V76H465.925Z" fill="white"/>
</svg>
