<svg width="396" height="98" viewBox="0 0 396 98" fill="none" xmlns="http://www.w3.org/2000/svg">
<path d="M66 3C66 3 57.2502 7.45935 48.5 7.45935C39.75 7.45935 31 3 31 3L48.5 46L66 3Z" fill="url(#paint0_radial_2712_366)" stroke="url(#paint1_radial_2712_366)" stroke-width="2"/>
<path d="M28.5778 4C28.5778 4 25.4667 13.5558 19.2445 19.926C13.3333 25.978 4 29.1631 4 29.1631L46 47L28.5778 4Z" stroke="#BDBDBD" stroke-width="2"/>
<path d="M94 67C94 67 89.5409 57.9999 89.5409 48.9998C89.5409 40.0001 94 31 94 31L51 48.9998L94 67Z" fill="url(#paint2_radial_2712_366)" stroke="url(#paint3_radial_2712_366)" stroke-width="2"/>
<path d="M93 29.1631C93 29.1631 83.6668 25.978 77.4443 19.6073C71.533 13.5558 68.4222 4 68.4222 4L51 47L93 29.1631Z" stroke="#BDBDBD" stroke-width="2"/>
<path d="M31 95C31 95 39.7501 90.5406 48.5001 90.5406C57.2502 90.5406 66 95 66 95L48.5001 52L31 95Z" fill="url(#paint4_radial_2712_366)" stroke="url(#paint5_radial_2712_366)" stroke-width="2"/>
<path d="M68.4222 94C68.4222 94 71.5335 84.4442 77.7555 78.074C83.6668 72.022 93 68.8369 93 68.8369L51 51L68.4222 94Z" stroke="#BDBDBD" stroke-width="2"/>
<path d="M3 31C3 31 7.35557 40.0001 7.35557 48.9998C7.35557 57.9999 3 67 3 67L45 48.9998L3 31Z" fill="url(#paint6_radial_2712_366)" stroke="url(#paint7_radial_2712_366)" stroke-width="2"/>
<path d="M4 68.8369C4 68.8369 13.3333 72.022 19.5556 78.3923C25.4667 84.4442 28.5778 94 28.5778 94L46 51L4 68.8369Z" stroke="#BDBDBD" stroke-width="2"/>
<path d="M180.365 33.452H188.749V53.2353C188.749 55.5877 188.186 57.6235 187.06 59.3422C185.944 61.0511 184.387 62.373 182.386 63.3081C180.386 64.2328 178.064 64.6952 175.42 64.6952C172.756 64.6952 170.424 64.2328 168.423 63.3081C166.423 62.373 164.865 61.0511 163.749 59.3422C162.643 57.6235 162.09 55.5877 162.09 53.2353V33.452H170.474V52.5116C170.474 53.4665 170.685 54.3209 171.107 55.0748C171.529 55.8188 172.112 56.402 172.856 56.8242C173.61 57.2465 174.465 57.4574 175.42 57.4574C176.385 57.4574 177.239 57.2465 177.983 56.8242C178.727 56.402 179.31 55.8188 179.732 55.0748C180.155 54.3209 180.365 53.4665 180.365 52.5116V33.452ZM192.734 33.452H203.168L210.346 50.9433H210.707L217.885 33.452H228.32V64.3333H220.116V46.4801H219.875L212.999 64.0922H208.054L201.178 46.3594H200.937V64.3333H192.734V33.452ZM232.293 64.3333V33.452H245.683C248.035 33.452 250.01 33.769 251.608 34.4022C253.217 35.0353 254.428 35.9303 255.243 37.0862C256.067 38.2421 256.479 39.6042 256.479 41.1724C256.479 42.3085 256.228 43.3436 255.725 44.2787C255.232 45.2134 254.539 45.9975 253.644 46.6311C252.749 47.2544 251.704 47.6865 250.508 47.9276V48.2291C251.835 48.2796 253.041 48.6164 254.127 49.2397C255.212 49.853 256.077 50.7022 256.72 51.7878C257.363 52.8635 257.685 54.1303 257.685 55.5877C257.685 57.2767 257.243 58.7794 256.358 60.0961C255.484 61.4129 254.237 62.4485 252.619 63.2024C251 63.9564 249.07 64.3333 246.829 64.3333H232.293ZM240.676 57.6386H244.597C246.004 57.6386 247.06 57.3772 247.763 56.8544C248.467 56.3213 248.819 55.5377 248.819 54.5021C248.819 53.7783 248.653 53.165 248.321 52.6625C247.99 52.1596 247.517 51.7779 246.904 51.5166C246.301 51.2552 245.572 51.1245 244.717 51.1245H240.676V57.6386ZM240.676 45.9376H244.114C244.848 45.9376 245.497 45.8215 246.06 45.5903C246.622 45.3592 247.06 45.0275 247.371 44.5953C247.693 44.1532 247.854 43.6154 247.854 42.9818C247.854 42.0269 247.512 41.2979 246.829 40.7955C246.145 40.2826 245.281 40.0265 244.235 40.0265H240.676V45.9376ZM260.655 64.3333V33.452H273.985C276.277 33.452 278.283 33.8695 280.001 34.7037C281.721 35.5383 283.058 36.7395 284.013 38.3077C284.968 39.876 285.445 41.7556 285.445 43.9471C285.445 46.1584 284.952 48.0234 283.967 49.5411C282.992 51.0589 281.62 52.2049 279.851 52.9791C278.092 53.7533 276.036 54.1402 273.684 54.1402H265.722V47.6261H271.995C272.98 47.6261 273.819 47.5053 274.513 47.2643C275.216 47.0128 275.754 46.616 276.127 46.073C276.508 45.5304 276.699 44.8213 276.699 43.9471C276.699 43.0625 276.508 42.3434 276.127 41.7905C275.754 41.2276 275.216 40.8158 274.513 40.5544C273.819 40.2826 272.98 40.1472 271.995 40.1472H269.039V64.3333H260.655ZM278.75 50.1592L286.47 64.3333H277.363L269.823 50.1592H278.75ZM289.018 64.3333V33.452H311.275V40.2076H297.402V45.5153H310.129V52.2705H297.402V57.5782H311.214V64.3333H289.018ZM315.433 64.3333V33.452H323.817V57.5782H336.302V64.3333H315.433ZM339.691 64.3333V33.452H348.074V57.5782H360.559V64.3333H339.691ZM371.97 64.3333H362.923L373.116 33.452H384.576L394.769 64.3333H385.722L378.967 41.9566H378.725L371.97 64.3333ZM370.281 52.1497H387.29V58.4227H370.281V52.1497Z" fill="white"/>
<mask id="mask0_2712_366" style="mask-type:luminance" maskUnits="userSpaceOnUse" x="162" y="33" width="233" height="32">
<path d="M180.365 33.452H188.749V53.2353C188.749 55.5877 188.186 57.6235 187.06 59.3422C185.944 61.0511 184.387 62.373 182.386 63.3081C180.386 64.2328 178.064 64.6952 175.42 64.6952C172.756 64.6952 170.424 64.2328 168.423 63.3081C166.423 62.373 164.865 61.0511 163.749 59.3422C162.643 57.6235 162.09 55.5877 162.09 53.2353V33.452H170.474V52.5116C170.474 53.4665 170.685 54.3209 171.107 55.0748C171.529 55.8188 172.112 56.402 172.856 56.8242C173.61 57.2465 174.465 57.4574 175.42 57.4574C176.385 57.4574 177.239 57.2465 177.983 56.8242C178.727 56.402 179.31 55.8188 179.732 55.0748C180.155 54.3209 180.365 53.4665 180.365 52.5116V33.452ZM192.734 33.452H203.168L210.346 50.9433H210.707L217.885 33.452H228.32V64.3333H220.116V46.4801H219.875L212.999 64.0922H208.054L201.178 46.3594H200.937V64.3333H192.734V33.452ZM232.293 64.3333V33.452H245.683C248.035 33.452 250.01 33.769 251.608 34.4022C253.217 35.0353 254.428 35.9303 255.243 37.0862C256.067 38.2421 256.479 39.6042 256.479 41.1724C256.479 42.3085 256.228 43.3436 255.725 44.2787C255.232 45.2134 254.539 45.9975 253.644 46.6311C252.749 47.2544 251.704 47.6865 250.508 47.9276V48.2291C251.835 48.2796 253.041 48.6164 254.127 49.2397C255.212 49.853 256.077 50.7022 256.72 51.7878C257.363 52.8635 257.685 54.1303 257.685 55.5877C257.685 57.2767 257.243 58.7794 256.358 60.0961C255.484 61.4129 254.237 62.4485 252.619 63.2024C251 63.9564 249.07 64.3333 246.829 64.3333H232.293ZM240.676 57.6386H244.597C246.004 57.6386 247.06 57.3772 247.763 56.8544C248.467 56.3213 248.819 55.5377 248.819 54.5021C248.819 53.7783 248.653 53.165 248.321 52.6625C247.99 52.1596 247.517 51.7779 246.904 51.5166C246.301 51.2552 245.572 51.1245 244.717 51.1245H240.676V57.6386ZM240.676 45.9376H244.114C244.848 45.9376 245.497 45.8215 246.06 45.5903C246.622 45.3592 247.06 45.0275 247.371 44.5953C247.693 44.1532 247.854 43.6154 247.854 42.9818C247.854 42.0269 247.512 41.2979 246.829 40.7955C246.145 40.2826 245.281 40.0265 244.235 40.0265H240.676V45.9376ZM260.655 64.3333V33.452H273.985C276.277 33.452 278.283 33.8695 280.001 34.7037C281.721 35.5383 283.058 36.7395 284.013 38.3077C284.968 39.876 285.445 41.7556 285.445 43.9471C285.445 46.1584 284.952 48.0234 283.967 49.5411C282.992 51.0589 281.62 52.2049 279.851 52.9791C278.092 53.7533 276.036 54.1402 273.684 54.1402H265.722V47.6261H271.995C272.98 47.6261 273.819 47.5053 274.513 47.2643C275.216 47.0128 275.754 46.616 276.127 46.073C276.508 45.5304 276.699 44.8213 276.699 43.9471C276.699 43.0625 276.508 42.3434 276.127 41.7905C275.754 41.2276 275.216 40.8158 274.513 40.5544C273.819 40.2826 272.98 40.1472 271.995 40.1472H269.039V64.3333H260.655ZM278.75 50.1592L286.47 64.3333H277.363L269.823 50.1592H278.75ZM289.018 64.3333V33.452H311.275V40.2076H297.402V45.5153H310.129V52.2705H297.402V57.5782H311.214V64.3333H289.018ZM315.433 64.3333V33.452H323.817V57.5782H336.302V64.3333H315.433ZM339.691 64.3333V33.452H348.074V57.5782H360.559V64.3333H339.691ZM371.97 64.3333H362.923L373.116 33.452H384.576L394.769 64.3333H385.722L378.967 41.9566H378.725L371.97 64.3333ZM370.281 52.1497H387.29V58.4227H370.281V52.1497Z" fill="white"/>
</mask>
<g mask="url(#mask0_2712_366)">
<path d="M180.365 33.452V32.9802H179.893V33.452H180.365ZM188.749 33.452H189.221V32.9802H188.749V33.452ZM182.386 63.3081L182.584 63.736L182.585 63.7356L182.386 63.3081ZM168.423 63.3081L168.223 63.7356L168.225 63.736L168.423 63.3081ZM163.749 59.3422L163.352 59.5975L163.354 59.6003L163.749 59.3422ZM162.09 33.452V32.9802H161.618V33.452H162.09ZM170.474 33.452H170.945V32.9802H170.474V33.452ZM171.107 55.0748L170.695 55.3055L170.697 55.3079L171.107 55.0748ZM172.856 56.8242L172.623 57.2347L172.625 57.2356L172.856 56.8242ZM179.732 55.0748L180.142 55.3079L180.143 55.3055L179.732 55.0748ZM180.365 33.9238H188.749V32.9802H180.365V33.9238ZM188.277 33.452V53.2353H189.221V33.452H188.277ZM188.277 53.2353C188.277 55.5093 187.734 57.4522 186.666 59.0837L187.455 59.6007C188.638 57.7942 189.221 55.666 189.221 53.2353H188.277ZM186.666 59.0837C185.602 60.7132 184.114 61.9795 182.186 62.8807L182.585 63.7356C184.659 62.7665 186.287 61.3893 187.455 59.6007L186.666 59.0837ZM182.188 62.8797C180.26 63.7709 178.008 64.2234 175.419 64.2234V65.167C178.118 65.167 180.51 64.6947 182.584 63.736L182.188 62.8797ZM175.419 64.2234C172.81 64.2234 170.548 63.7705 168.621 62.8797L168.225 63.736C170.299 64.6952 172.701 65.167 175.419 65.167V64.2234ZM168.623 62.8807C166.695 61.9795 165.207 60.7137 164.143 59.0841L163.354 59.6003C164.521 61.3889 166.15 62.7665 168.223 63.7356L168.623 62.8807ZM164.145 59.087C163.096 57.455 162.562 55.5112 162.562 53.2353H161.618C161.618 55.6641 162.19 57.7914 163.352 59.5975L164.145 59.087ZM162.562 53.2353V33.452H161.618V53.2353H162.562ZM162.09 33.9238H170.474V32.9802H162.09V33.9238ZM170.002 33.452V52.5116H170.945V33.452H170.002ZM170.002 52.5116C170.002 53.5387 170.23 54.4738 170.695 55.3055L171.519 54.8446C171.14 54.168 170.945 53.3948 170.945 52.5116H170.002ZM170.697 55.3079C171.161 56.126 171.805 56.7705 172.623 57.2347L173.089 56.4138C172.419 56.0335 171.897 55.5122 171.517 54.8422L170.697 55.3079ZM172.625 57.2356C173.457 57.7013 174.392 57.9292 175.419 57.9292V56.9856C174.537 56.9856 173.763 56.7912 173.086 56.4124L172.625 57.2356ZM175.419 57.9292C176.455 57.9292 177.392 57.7018 178.216 57.2342L177.75 56.4138C177.086 56.7907 176.313 56.9856 175.419 56.9856V57.9292ZM178.216 57.2342C179.034 56.77 179.678 56.126 180.142 55.3079L179.322 54.8422C178.941 55.5122 178.419 56.0335 177.75 56.4138L178.216 57.2342ZM180.143 55.3055C180.609 54.4738 180.837 53.5387 180.837 52.5116H179.893C179.893 53.3948 179.699 54.168 179.32 54.8446L180.143 55.3055ZM180.837 52.5116V33.452H179.893V52.5116H180.837ZM192.733 33.452V32.9802H192.261V33.452H192.733ZM203.168 33.452L203.604 33.2732L203.485 32.9802H203.168V33.452ZM210.345 50.9433L209.909 51.1226L210.029 51.4151H210.345V50.9433ZM210.707 50.9433V51.4151H211.024L211.144 51.1226L210.707 50.9433ZM217.885 33.452V32.9802H217.569L217.448 33.2732L217.885 33.452ZM228.319 33.452H228.791V32.9802H228.319V33.452ZM228.319 64.3333V64.8051H228.791V64.3333H228.319ZM220.116 64.3333H219.644V64.8051H220.116V64.3333ZM220.116 46.4801H220.588V46.0083H220.116V46.4801ZM219.875 46.4801V46.0083H219.553L219.435 46.3084L219.875 46.4801ZM212.999 64.0922V64.564H213.321L213.439 64.2635L212.999 64.0922ZM208.053 64.0922L207.614 64.2626L207.73 64.564H208.053V64.0922ZM201.177 46.3594L201.618 46.189L201.501 45.8876H201.177V46.3594ZM200.936 46.3594V45.8876H200.465V46.3594H200.936ZM200.936 64.3333V64.8051H201.408V64.3333H200.936ZM192.733 64.3333H192.261V64.8051H192.733V64.3333ZM192.733 33.9238H203.168V32.9802H192.733V33.9238ZM202.732 33.6313L209.909 51.1226L210.782 50.7645L203.604 33.2732L202.732 33.6313ZM210.345 51.4151H210.707V50.4715H210.345V51.4151ZM211.144 51.1226L218.321 33.6313L217.448 33.2732L210.271 50.7645L211.144 51.1226ZM217.885 33.9238H228.319V32.9802H217.885V33.9238ZM227.848 33.452V64.3333H228.791V33.452H227.848ZM228.319 63.8615H220.116V64.8051H228.319V63.8615ZM220.588 64.3333V46.4801H219.644V64.3333H220.588ZM220.116 46.0083H219.875V46.9519H220.116V46.0083ZM219.435 46.3084L212.56 63.9205L213.439 64.2635L220.314 46.6519L219.435 46.3084ZM212.999 63.6204H208.053V64.564H212.999V63.6204ZM208.493 63.9214L201.618 46.189L200.738 46.5301L207.614 64.2626L208.493 63.9214ZM201.177 45.8876H200.936V46.8312H201.177V45.8876ZM200.465 46.3594V64.3333H201.408V46.3594H200.465ZM200.936 63.8615H192.733V64.8051H200.936V63.8615ZM193.205 64.3333V33.452H192.261V64.3333H193.205ZM232.292 64.3333H231.821V64.8051H232.292V64.3333ZM232.292 33.452V32.9802H231.821V33.452H232.292ZM255.242 37.0862L254.856 37.358L254.858 37.3599L255.242 37.0862ZM255.725 44.2787L255.309 44.0551L255.307 44.0589L255.725 44.2787ZM253.644 46.6311L253.913 47.018L253.917 47.0161L253.644 46.6311ZM250.507 47.9276L250.414 47.4652L250.036 47.5417V47.9276H250.507ZM250.507 48.2291H250.036V48.6834L250.489 48.7009L250.507 48.2291ZM254.127 49.2397L253.892 49.6487L253.894 49.6506L254.127 49.2397ZM256.72 51.7878L256.314 52.0284L256.315 52.0299L256.72 51.7878ZM256.358 60.0961L255.967 59.8333L255.965 59.8352L256.358 60.0961ZM240.676 57.6386H240.204V58.1103H240.676V57.6386ZM247.763 56.8544L248.045 57.2333L248.048 57.2305L247.763 56.8544ZM246.904 51.5165L246.716 51.9492L246.718 51.9506L246.904 51.5165ZM240.676 51.1245V50.6527H240.204V51.1245H240.676ZM240.676 45.9376H240.204V46.4094H240.676V45.9376ZM247.371 44.5953L246.99 44.3179L246.988 44.3193L247.371 44.5953ZM246.828 40.7955L246.545 41.1729L246.549 41.1757L246.828 40.7955ZM240.676 40.0264V39.5547H240.204V40.0264H240.676ZM232.764 64.3333V33.452H231.821V64.3333H232.764ZM232.292 33.9238H245.682V32.9802H232.292V33.9238ZM245.682 33.9238C247.996 33.9238 249.908 34.2356 251.434 34.841L251.782 33.9634C250.112 33.302 248.073 32.9802 245.682 32.9802V33.9238ZM251.434 34.841C252.976 35.4482 254.106 36.2927 254.856 37.358L255.628 36.8145C254.75 35.568 253.457 34.623 251.782 33.9634L251.434 34.841ZM254.858 37.3599C255.619 38.428 256.007 39.6919 256.007 41.1724H256.95C256.95 39.5169 256.513 38.0567 255.626 36.8121L254.858 37.3599ZM256.007 41.1724C256.007 42.2359 255.772 43.1941 255.309 44.0551L256.14 44.5019C256.682 43.4937 256.95 42.3807 256.95 41.1724H256.007ZM255.307 44.0589C254.851 44.9256 254.208 45.654 253.371 46.2457L253.917 47.0161C254.869 46.3414 255.614 45.5016 256.142 44.4986L255.307 44.0589ZM253.374 46.2438C252.538 46.826 251.555 47.235 250.414 47.4652L250.601 48.3904C251.853 48.1375 252.96 47.6823 253.913 47.018L253.374 46.2438ZM250.036 47.9276V48.2291H250.979V47.9276H250.036ZM250.489 48.7009C251.745 48.7485 252.876 49.066 253.892 49.6487L254.361 48.8306C253.205 48.1668 251.924 47.8106 250.525 47.7578L250.489 48.7009ZM253.894 49.6506C254.907 50.2224 255.712 51.0127 256.314 52.0284L257.126 51.5472C256.441 50.3918 255.517 49.4831 254.358 48.8287L253.894 49.6506ZM256.315 52.0299C256.908 53.0211 257.213 54.2011 257.213 55.5877H258.157C258.157 54.059 257.819 52.7059 257.125 51.5458L256.315 52.0299ZM257.213 55.5877C257.213 57.1889 256.795 58.5991 255.967 59.8333L256.75 60.3594C257.69 58.9596 258.157 57.364 258.157 55.5877H257.213ZM255.965 59.8352C255.144 61.0709 253.969 62.0527 252.419 62.775L252.818 63.6299C254.504 62.8443 255.822 61.7554 256.751 60.357L255.965 59.8352ZM252.419 62.775C250.877 63.4931 249.018 63.8615 246.828 63.8615V64.8051C249.122 64.8051 251.123 64.4197 252.818 63.6299L252.419 62.775ZM246.828 63.8615H232.292V64.8051H246.828V63.8615ZM240.676 58.1103H244.597V57.1668H240.676V58.1103ZM244.597 58.1103C246.048 58.1103 247.223 57.8433 248.045 57.2333L247.482 56.4756C246.895 56.911 245.959 57.1668 244.597 57.1668V58.1103ZM248.048 57.2305C248.891 56.5926 249.291 55.6561 249.291 54.5021H248.347C248.347 55.4188 248.043 56.0505 247.478 56.4779L248.048 57.2305ZM249.291 54.5021C249.291 53.7047 249.107 52.9966 248.715 52.4026L247.927 52.9225C248.198 53.3334 248.347 53.8519 248.347 54.5021H249.291ZM248.715 52.4026C248.327 51.8147 247.778 51.3759 247.089 51.0825L246.718 51.9506C247.256 52.1794 247.652 52.505 247.927 52.9225L248.715 52.4026ZM247.091 51.0834C246.414 50.79 245.618 50.6527 244.717 50.6527V51.5963C245.526 51.5963 246.187 51.7199 246.716 51.9492L247.091 51.0834ZM244.717 50.6527H240.676V51.5963H244.717V50.6527ZM240.204 51.1245V57.6386H241.148V51.1245H240.204ZM240.676 46.4094H244.114V45.4658H240.676V46.4094ZM244.114 46.4094C244.897 46.4094 245.608 46.2858 246.239 46.0267L245.88 45.1539C245.384 45.3577 244.799 45.4658 244.114 45.4658V46.4094ZM246.239 46.0267C246.871 45.7673 247.384 45.3846 247.754 44.8713L246.988 44.3193C246.735 44.6703 246.373 44.9515 245.88 45.1539L246.239 46.0267ZM247.753 44.8727C248.142 44.3377 248.325 43.6984 248.325 42.9818H247.382C247.382 43.5319 247.243 43.9683 246.99 44.3179L247.753 44.8727ZM248.325 42.9818C248.325 41.8985 247.929 41.0191 247.108 40.4152L246.549 41.1757C247.095 41.5772 247.382 42.1552 247.382 42.9818H248.325ZM247.111 40.418C246.329 39.8316 245.359 39.5547 244.235 39.5547V40.4982C245.202 40.4982 245.96 40.7341 246.545 41.1729L247.111 40.418ZM244.235 39.5547H240.676V40.4982H244.235V39.5547ZM240.204 40.0264V45.9376H241.148V40.0264H240.204ZM260.655 64.3333H260.183V64.8051H260.655V64.3333ZM260.655 33.452V32.9802H260.183V33.452H260.655ZM283.967 49.5411L283.571 49.2845L283.57 49.2864L283.967 49.5411ZM265.722 54.1402H265.25V54.612H265.722V54.1402ZM265.722 47.6261V47.1543H265.25V47.6261H265.722ZM274.513 47.2643L274.668 47.7101L274.671 47.7087L274.513 47.2643ZM276.126 46.073L275.74 45.8017L275.737 45.8064L276.126 46.073ZM276.126 41.7905L275.732 42.0509L275.735 42.0547L275.738 42.0589L276.126 41.7905ZM274.513 40.5544L274.341 40.9936L274.344 40.995L274.349 40.9965L274.513 40.5544ZM269.039 40.1472V39.6754H268.567V40.1472H269.039ZM269.039 64.3333V64.8051H269.511V64.3333H269.039ZM278.75 50.1592L279.164 49.9337L279.03 49.6874H278.75V50.1592ZM286.47 64.3333V64.8051H287.264L286.884 64.1078L286.47 64.3333ZM277.362 64.3333L276.946 64.5551L277.079 64.8051H277.362V64.3333ZM269.823 50.1592V49.6874H269.038L269.407 50.3809L269.823 50.1592ZM261.127 64.3333V33.452H260.183V64.3333H261.127ZM260.655 33.9238H273.985V32.9802H260.655V33.9238ZM273.985 33.9238C276.22 33.9238 278.152 34.3305 279.795 35.1283L280.207 34.2795C278.413 33.4081 276.334 32.9802 273.985 32.9802V33.9238ZM279.795 35.1283C281.436 35.9247 282.703 37.0655 283.609 38.553L284.415 38.0624C283.411 36.4134 282.004 35.1514 280.207 34.2795L279.795 35.1283ZM283.609 38.553C284.511 40.034 284.973 41.8254 284.973 43.9471H285.917C285.917 41.6858 285.423 39.7174 284.415 38.0624L283.609 38.553ZM284.973 43.9471C284.973 46.0876 284.497 47.8582 283.571 49.2845L284.363 49.7978C285.407 48.188 285.917 46.2291 285.917 43.9471H284.973ZM283.57 49.2864C282.649 50.7202 281.352 51.8072 279.661 52.5469L280.039 53.4113C281.888 52.6026 283.335 51.3981 284.364 49.7959L283.57 49.2864ZM279.661 52.5469C277.974 53.2891 275.984 53.6684 273.683 53.6684V54.612C276.087 54.612 278.209 54.2171 280.039 53.4113L279.661 52.5469ZM273.683 53.6684H265.722V54.612H273.683V53.6684ZM266.194 54.1402V47.6261H265.25V54.1402H266.194ZM265.722 48.0979H271.994V47.1543H265.722V48.0979ZM271.994 48.0979C273.016 48.0979 273.91 47.9734 274.668 47.7101L274.358 46.8189C273.728 47.0378 272.944 47.1543 271.994 47.1543V48.0979ZM274.671 47.7087C275.455 47.4284 276.08 46.9755 276.515 46.3395L275.737 45.8064C275.429 46.2565 274.977 46.5971 274.354 46.8198L274.671 47.7087ZM276.512 46.3447C276.965 45.7003 277.171 44.8883 277.171 43.9471H276.227C276.227 44.7548 276.051 45.3601 275.74 45.8017L276.512 46.3447ZM277.171 43.9471C277.171 42.9964 276.966 42.176 276.514 41.5225L275.738 42.0589C276.051 42.5114 276.227 43.128 276.227 43.9471H277.171ZM276.52 41.5305C276.086 40.8747 275.463 40.4039 274.677 40.1118L274.349 40.9965C274.969 41.2272 275.422 41.5805 275.732 42.0509L276.52 41.5305ZM274.685 40.1147C273.922 39.8165 273.021 39.6754 271.994 39.6754V40.619C272.939 40.619 273.716 40.7492 274.341 40.9936L274.685 40.1147ZM271.994 39.6754H269.039V40.619H271.994V39.6754ZM268.567 40.1472V64.3333H269.511V40.1472H268.567ZM269.039 63.8615H260.655V64.8051H269.039V63.8615ZM278.335 50.3852L286.056 64.5588L286.884 64.1078L279.164 49.9337L278.335 50.3852ZM286.47 63.8615H277.362V64.8051H286.47V63.8615ZM277.779 64.1116L270.24 49.9379L269.407 50.3809L276.946 64.5551L277.779 64.1116ZM269.823 50.631H278.75V49.6874H269.823V50.631ZM289.018 64.3333H288.546V64.8051H289.018V64.3333ZM289.018 33.452V32.9802H288.546V33.452H289.018ZM311.275 33.452H311.746V32.9802H311.275V33.452ZM311.275 40.2076V40.6794H311.746V40.2076H311.275ZM297.402 40.2076V39.7358H296.93V40.2076H297.402ZM297.402 45.5153H296.93V45.9871H297.402V45.5153ZM310.129 45.5153H310.6V45.0435H310.129V45.5153ZM310.129 52.2705V52.7423H310.6V52.2705H310.129ZM297.402 52.2705V51.7987H296.93V52.2705H297.402ZM297.402 57.5782H296.93V58.05H297.402V57.5782ZM311.214 57.5782H311.686V57.1064H311.214V57.5782ZM311.214 64.3333V64.8051H311.686V64.3333H311.214ZM289.49 64.3333V33.452H288.546V64.3333H289.49ZM289.018 33.9238H311.275V32.9802H289.018V33.9238ZM310.803 33.452V40.2076H311.746V33.452H310.803ZM311.275 39.7358H297.402V40.6794H311.275V39.7358ZM296.93 40.2076V45.5153H297.874V40.2076H296.93ZM297.402 45.9871H310.129V45.0435H297.402V45.9871ZM309.657 45.5153V52.2705H310.6V45.5153H309.657ZM310.129 51.7987H297.402V52.7423H310.129V51.7987ZM296.93 52.2705V57.5782H297.874V52.2705H296.93ZM297.402 58.05H311.214V57.1064H297.402V58.05ZM310.742 57.5782V64.3333H311.686V57.5782H310.742ZM311.214 63.8615H289.018V64.8051H311.214V63.8615ZM315.432 64.3333H314.961V64.8051H315.432V64.3333ZM315.432 33.452V32.9802H314.961V33.452H315.432ZM323.816 33.452H324.288V32.9802H323.816V33.452ZM323.816 57.5782H323.345V58.05H323.816V57.5782ZM336.301 57.5782H336.773V57.1064H336.301V57.5782ZM336.301 64.3333V64.8051H336.773V64.3333H336.301ZM315.904 64.3333V33.452H314.961V64.3333H315.904ZM315.432 33.9238H323.816V32.9802H315.432V33.9238ZM323.345 33.452V57.5782H324.288V33.452H323.345ZM323.816 58.05H336.301V57.1064H323.816V58.05ZM335.83 57.5782V64.3333H336.773V57.5782H335.83ZM336.301 63.8615H315.432V64.8051H336.301V63.8615ZM339.69 64.3333H339.219V64.8051H339.69V64.3333ZM339.69 33.452V32.9802H339.219V33.452H339.69ZM348.074 33.452H348.546V32.9802H348.074V33.452ZM348.074 57.5782H347.602V58.05H348.074V57.5782ZM360.559 57.5782H361.031V57.1064H360.559V57.5782ZM360.559 64.3333V64.8051H361.031V64.3333H360.559ZM340.162 64.3333V33.452H339.219V64.3333H340.162ZM339.69 33.9238H348.074V32.9802H339.69V33.9238ZM347.602 33.452V57.5782H348.546V33.452H347.602ZM348.074 58.05H360.559V57.1064H348.074V58.05ZM360.087 57.5782V64.3333H361.031V57.5782H360.087ZM360.559 63.8615H339.69V64.8051H360.559V63.8615ZM371.97 64.3333V64.8051H372.32L372.422 64.4697L371.97 64.3333ZM362.923 64.3333L362.475 64.1857L362.27 64.8051H362.923V64.3333ZM373.116 33.452V32.9802H372.775L372.668 33.3043L373.116 33.452ZM384.575 33.452L385.024 33.3043L384.917 32.9802H384.575V33.452ZM394.769 64.3333V64.8051H395.422L395.217 64.1857L394.769 64.3333ZM385.721 64.3333L385.27 64.4697L385.371 64.8051H385.721V64.3333ZM378.966 41.9566L379.418 41.8202L379.317 41.4848H378.966V41.9566ZM378.725 41.9566V41.4848H378.375L378.274 41.8202L378.725 41.9566ZM370.281 52.1497V51.6779H369.809V52.1497H370.281ZM387.29 52.1497H387.761V51.6779H387.29V52.1497ZM387.29 58.4227V58.8945H387.761V58.4227H387.29ZM370.281 58.4227H369.809V58.8945H370.281V58.4227ZM371.97 63.8615H362.923V64.8051H371.97V63.8615ZM363.371 64.481L373.564 33.6001L372.668 33.3043L362.475 64.1857L363.371 64.481ZM373.116 33.9238H384.575V32.9802H373.116V33.9238ZM384.128 33.6001L394.321 64.481L395.217 64.1857L385.024 33.3043L384.128 33.6001ZM394.769 63.8615H385.721V64.8051H394.769V63.8615ZM386.173 64.197L379.418 41.8202L378.515 42.0929L385.27 64.4697L386.173 64.197ZM378.966 41.4848H378.725V42.4284H378.966V41.4848ZM378.274 41.8202L371.518 64.197L372.422 64.4697L379.177 42.0929L378.274 41.8202ZM370.281 52.6215H387.29V51.6779H370.281V52.6215ZM386.818 52.1497V58.4227H387.761V52.1497H386.818ZM387.29 57.9509H370.281V58.8945H387.29V57.9509ZM370.753 58.4227V52.1497H369.809V58.4227H370.753Z" fill="white"/>
</g>
<defs>
<radialGradient id="paint0_radial_2712_366" cx="0" cy="0" r="1" gradientUnits="userSpaceOnUse" gradientTransform="translate(67.8148 48.2297) scale(38.889 47.7777)">
<stop offset="0.3" stop-color="#DDDDDD"/>
<stop offset="0.6" stop-color="white"/>
<stop offset="0.9" stop-color="#DDDDDD"/>
</radialGradient>
<radialGradient id="paint1_radial_2712_366" cx="0" cy="0" r="1" gradientUnits="userSpaceOnUse" gradientTransform="translate(67.8148 48.2297) scale(38.889 47.7777)">
<stop offset="0.3" stop-color="#DDDDDD"/>
<stop offset="0.6" stop-color="white"/>
<stop offset="0.9" stop-color="#DDDDDD"/>
</radialGradient>
<radialGradient id="paint2_radial_2712_366" cx="0" cy="0" r="1" gradientUnits="userSpaceOnUse" gradientTransform="translate(96.2301 68.8667) scale(47.778 39.9995)">
<stop offset="0.3" stop-color="#DDDDDD"/>
<stop offset="0.6" stop-color="white"/>
<stop offset="0.9" stop-color="#DDDDDD"/>
</radialGradient>
<radialGradient id="paint3_radial_2712_366" cx="0" cy="0" r="1" gradientUnits="userSpaceOnUse" gradientTransform="translate(96.2301 68.8667) scale(47.778 39.9995)">
<stop offset="0.3" stop-color="#DDDDDD"/>
<stop offset="0.6" stop-color="white"/>
<stop offset="0.9" stop-color="#DDDDDD"/>
</radialGradient>
<radialGradient id="paint4_radial_2712_366" cx="0" cy="0" r="1" gradientUnits="userSpaceOnUse" gradientTransform="translate(67.8148 97.2297) scale(38.8891 47.7777)">
<stop offset="0.3" stop-color="#DDDDDD"/>
<stop offset="0.6" stop-color="white"/>
<stop offset="0.9" stop-color="#DDDDDD"/>
</radialGradient>
<radialGradient id="paint5_radial_2712_366" cx="0" cy="0" r="1" gradientUnits="userSpaceOnUse" gradientTransform="translate(67.8148 97.2297) scale(38.8891 47.7777)">
<stop offset="0.3" stop-color="#DDDDDD"/>
<stop offset="0.6" stop-color="white"/>
<stop offset="0.9" stop-color="#DDDDDD"/>
</radialGradient>
<radialGradient id="paint6_radial_2712_366" cx="0" cy="0" r="1" gradientUnits="userSpaceOnUse" gradientTransform="translate(47.1778 68.8667) scale(46.6667 39.9995)">
<stop offset="0.3" stop-color="#DDDDDD"/>
<stop offset="0.6" stop-color="white"/>
<stop offset="0.9" stop-color="#DDDDDD"/>
</radialGradient>
<radialGradient id="paint7_radial_2712_366" cx="0" cy="0" r="1" gradientUnits="userSpaceOnUse" gradientTransform="translate(47.1778 68.8667) scale(46.6667 39.9995)">
<stop offset="0.3" stop-color="#DDDDDD"/>
<stop offset="0.6" stop-color="white"/>
<stop offset="0.9" stop-color="#DDDDDD"/>
</radialGradient>
</defs>
</svg>
